<?xml version="1.0" encoding="utf-8"?>
<!-- Generator: Adobe Illustrator 16.0.0, SVG Export Plug-In . SVG Version: 6.00 Build 0)  -->
<!DOCTYPE svg PUBLIC "-//W3C//DTD SVG 1.1//EN" "http://www.w3.org/Graphics/SVG/1.1/DTD/svg11.dtd">
<svg version="1.1" id="Capa_1" xmlns="http://www.w3.org/2000/svg" xmlns:xlink="http://www.w3.org/1999/xlink" x="0px" y="0px"
	 width="595.281px" height="841.891px" viewBox="0 0 595.281 841.891" enable-background="new 0 0 595.281 841.891"
	 xml:space="preserve">
<path fill="#FFFFFF" d="M0,207.636v22.73v381.158v22.729h595.281v-22.729V230.366v-22.73H0z M363.369,426.541l-54.031,54.289
	c-6.568,6.102-16.846,6.092-23.137,0.258l-54.299-54.547l0.476-0.467L36.183,227.479h523.043L362.892,426.084L363.369,426.541z
	 M203.625,426.233L19.843,603.051V241.597L203.625,426.233z M217.615,440.292l54.795,55.053c7.034,6.559,16.063,9.853,25.131,9.853
	c9.158,0,18.355-3.363,25.607-10.12l54.527-54.785l180.936,174.119H36.57L217.615,440.292z M391.666,426.243l183.771-184.656
	v361.464L391.666,426.243z"/>
</svg>
